<svg width="40" height="40" viewBox="0 0 40 40" fill="none" xmlns="http://www.w3.org/2000/svg">
  <defs>
    <linearGradient id="rkGrad" x1="0" y1="0" x2="40" y2="40" gradientUnits="userSpaceOnUse">
      <stop offset="0" stop-color="#4C6FFF"/>
      <stop offset="1" stop-color="#00E5A0"/>
    </linearGradient>
  </defs>
  <rect x="1" y="1" width="38" height="38" rx="10" stroke="url(#rkGrad)" stroke-width="1.5"/>
  <path d="M12 27V13h6.2c2.9 0 4.8 1.7 4.8 4.3 0 1.9-1 3.3-2.7 3.9l3.2 5.8h-3.3l-2.9-5.3h-2.2V27H12Zm3.1-7.7h2.8c1.4 0 2.2-.7 2.2-1.9 0-1.2-.8-1.9-2.2-1.9h-2.8v3.8Z" fill="url(#rkGrad)"/>
  <path d="M27 27.3 22 20l4.7-7h3.6l-4.8 6.9 5 7.4H27Z" fill="url(#rkGrad)" opacity="0.55"/>
</svg>
